<svg width="46" height="45" viewBox="0 0 46 45" fill="none" xmlns="http://www.w3.org/2000/svg">
<path d="M46 22.5C46 34.9264 35.7025 45 23 45C10.2975 45 0 34.9264 0 22.5C0 10.0736 10.2975 0 23 0C35.7025 0 46 10.0736 46 22.5Z" fill="url(#paint0_angular_667_359)" fill-opacity="0.8"/>
<path d="M33.1028 27.7292C32.1568 27.7292 31.3407 27.5203 30.6547 27.1027C29.9729 26.6809 29.4466 26.0928 29.0758 25.3385C28.7094 24.58 28.5261 23.6979 28.5261 22.6922C28.5261 21.6865 28.7094 20.8002 29.0758 20.0331C29.4466 19.2618 29.9622 18.661 30.6227 18.2306C31.2875 17.7959 32.0631 17.5786 32.9494 17.5786C33.4608 17.5786 33.9658 17.6638 34.4644 17.8343C34.9629 18.0047 35.4168 18.2817 35.8259 18.6652C36.2349 19.0445 36.5609 19.5473 36.8038 20.1738C37.0467 20.8002 37.1682 21.5715 37.1682 22.4877V23.1269H29.6V21.8229H35.6341C35.6341 21.2689 35.5233 20.7746 35.3017 20.3399C35.0844 19.9053 34.7733 19.5623 34.3685 19.3108C33.9679 19.0594 33.4949 18.9337 32.9494 18.9337C32.3486 18.9337 31.8287 19.0828 31.3898 19.3811C30.9551 19.6752 30.6206 20.0587 30.3862 20.5317C30.1518 21.0047 30.0346 21.5118 30.0346 22.053V22.9223C30.0346 23.6638 30.1625 24.2924 30.4182 24.808C30.6781 25.3194 31.0382 25.7093 31.4984 25.9777C31.9586 26.2419 32.4935 26.374 33.1028 26.374C33.4992 26.374 33.8571 26.3186 34.1767 26.2078C34.5006 26.0928 34.7797 25.9223 35.0141 25.6965C35.2484 25.4664 35.4296 25.1809 35.5574 24.8399L37.0148 25.249C36.8614 25.7434 36.6036 26.178 36.2413 26.553C35.8791 26.9238 35.4317 27.2135 34.899 27.4223C34.3663 27.6269 33.7676 27.7292 33.1028 27.7292Z" fill="white"/>
<path d="M27.346 17.7065L23.7153 27.5247H22.1812L18.5505 17.7065H20.1869L22.8971 25.5304H22.9994L25.7096 17.7065H27.346Z" fill="white"/>
<path d="M13.2571 27.7292C12.3111 27.7292 11.4951 27.5203 10.809 27.1027C10.1272 26.6809 9.60088 26.0928 9.23014 25.3385C8.86366 24.58 8.68042 23.6979 8.68042 22.6922C8.68042 21.6865 8.86366 20.8002 9.23014 20.0331C9.60088 19.2618 10.1165 18.661 10.777 18.2306C11.4418 17.7959 12.2174 17.5786 13.1037 17.5786C13.6151 17.5786 14.1201 17.6638 14.6186 17.8343C15.1172 18.0047 15.571 18.2817 15.9801 18.6652C16.3892 19.0445 16.7152 19.5473 16.9581 20.1738C17.201 20.8002 17.3225 21.5715 17.3225 22.4877V23.1269H9.75429V21.8229H15.7884C15.7884 21.2689 15.6776 20.7746 15.456 20.3399C15.2387 19.9053 14.9276 19.5623 14.5228 19.3108C14.1222 19.0594 13.6492 18.9337 13.1037 18.9337C12.5029 18.9337 11.983 19.0828 11.5441 19.3811C11.1094 19.6752 10.7749 20.0587 10.5405 20.5317C10.3061 21.0047 10.1889 21.5118 10.1889 22.053V22.9223C10.1889 23.6638 10.3168 24.2924 10.5725 24.808C10.8324 25.3194 11.1925 25.7093 11.6527 25.9777C12.113 26.2419 12.6478 26.374 13.2571 26.374C13.6534 26.374 14.0114 26.3186 14.331 26.2078C14.6549 26.0928 14.934 25.9223 15.1683 25.6965C15.4027 25.4664 15.5838 25.1809 15.7117 24.8399L17.1691 25.249C17.0156 25.7434 16.7578 26.178 16.3956 26.553C16.0334 26.9238 15.586 27.2135 15.0533 27.4223C14.5206 27.6269 13.9219 27.7292 13.2571 27.7292Z" fill="white"/>
<path d="M17.7559 12.0244C17.7559 12.8528 17.0843 13.5244 16.2559 13.5244C15.4274 13.5244 14.7559 12.8528 14.7559 12.0244C14.7559 11.196 15.4274 10.5244 16.2559 10.5244C17.0843 10.5244 17.7559 11.196 17.7559 12.0244Z" fill="white"/>
<path fill-rule="evenodd" clip-rule="evenodd" d="M27.8577 41.5845C26.136 41.8577 24.3314 42 22.5 42C17.3293 42 12.7846 39.7023 10.2172 37.672C11.0957 36.8867 11.8954 36.3787 12.657 36.0835C14.1243 35.5149 15.5295 35.7071 17.2499 36.4013C18.3812 36.8578 19.5945 37.5063 21.0141 38.265C21.7985 38.6843 22.646 39.1372 23.5775 39.6101C24.8537 40.2579 26.2677 40.9316 27.8577 41.5845ZM29.7032 41.2344C27.5315 40.4221 25.669 39.5503 24.0301 38.7184C23.1537 38.2735 22.3311 37.8341 21.555 37.4196C20.0968 36.6408 18.8027 35.9496 17.6241 35.474C15.7822 34.7307 14.0939 34.4542 12.2956 35.1511C11.3689 35.5103 10.4355 36.1199 9.44792 37.0192C8.52016 36.1694 7.99972 35.4245 8 35C8.00098 33.4998 12.2578 31.1204 16.7578 31.5723C18.3578 31.5723 20.4377 32.6738 22.9336 33.9957C26.6775 35.9786 31.3575 38.4573 36.7578 38.4573C34.8477 39.6904 32.4141 40.6327 29.7032 41.2344Z" fill="white"/>
<defs>
<radialGradient id="paint0_angular_667_359" cx="0" cy="0" r="1" gradientUnits="userSpaceOnUse" gradientTransform="translate(43.5 44) rotate(166.323) scale(50.2121 59.7664)">
<stop offset="0.598974" stop-color="#F2A3BD" stop-opacity="0.7"/>
<stop offset="0.928566" stop-color="#6EBFF9"/>
<stop offset="0.959467" stop-color="#6FDBB8" stop-opacity="0.8"/>
</radialGradient>
</defs>
</svg>
