<svg width="24" height="24" viewBox="0 0 24 24" fill="none" xmlns="http://www.w3.org/2000/svg">
<path fill-rule="evenodd" clip-rule="evenodd" d="M5.25 4.59324V13.4962C5.358 13.4609 5.47133 13.4249 5.59 13.3882C6.351 13.1572 7.378 12.9002 8.25 12.9002C9.668 12.9002 10.99 13.3322 12.184 13.7212L12.233 13.7372C13.478 14.1432 14.591 14.5002 15.75 14.5002C16.686 14.5002 18.006 14.1402 18.75 13.9072V5.07324C17.944 5.30524 16.735 5.60024 15.75 5.60024C14.332 5.60024 13.01 5.16824 11.816 4.77924L11.767 4.76324C10.522 4.35724 9.41 4.00024 8.25 4.00024C7.598 4.00024 6.74 4.17824 6.002 4.37524C5.715 4.45124 5.457 4.52824 5.25 4.59324ZM5.25 15.0812C5.46 15.0062 5.729 14.9142 6.027 14.8232C6.764 14.5992 7.613 14.4002 8.25 14.4002C9.41 14.4002 10.522 14.7572 11.767 15.1632L11.816 15.1792C13.009 15.5692 14.332 16.0002 15.75 16.0002C17.039 16.0002 18.727 15.4932 19.398 15.2752C19.92 15.1072 20.25 14.6222 20.25 14.0982V4.75924C20.25 3.88924 19.4 3.31124 18.608 3.55124C17.827 3.78824 16.618 4.10024 15.75 4.10024C14.59 4.10024 13.478 3.74324 12.233 3.33724L12.184 3.32124C10.991 2.93124 9.668 2.50024 8.25 2.50024C7.392 2.50024 6.376 2.72224 5.615 2.92524C5.16493 3.04637 4.71902 3.18244 4.278 3.33324L4.257 3.34124L4.251 3.34324H4.249L4.5 4.05024L4.248 3.34424C4.10233 3.39621 3.97628 3.49195 3.88713 3.61833C3.79798 3.74472 3.75008 3.89558 3.75 4.05024V20.7502C3.75 20.9492 3.82902 21.1399 3.96967 21.2806C4.11032 21.4212 4.30109 21.5002 4.5 21.5002C4.69891 21.5002 4.88968 21.4212 5.03033 21.2806C5.17098 21.1399 5.25 20.9492 5.25 20.7502V15.0812Z" fill="black"/>
</svg>
