<svg width="16" height="17" viewBox="0 0 16 17" fill="none" xmlns="http://www.w3.org/2000/svg">
<path d="M5.59961 2.90002C5.38744 2.90002 5.18395 2.98431 5.03392 3.13434C4.88389 3.28437 4.79961 3.48785 4.79961 3.70002C4.79961 3.9122 4.88389 4.11568 5.03392 4.26571C5.18395 4.41574 5.38744 4.50002 5.59961 4.50002H10.3996C10.6118 4.50002 10.8153 4.41574 10.9653 4.26571C11.1153 4.11568 11.1996 3.9122 11.1996 3.70002C11.1996 3.48785 11.1153 3.28437 10.9653 3.13434C10.8153 2.98431 10.6118 2.90002 10.3996 2.90002H5.59961ZM3.19961 6.10002C3.19961 5.88785 3.28389 5.68437 3.43392 5.53434C3.58395 5.38431 3.78744 5.30002 3.99961 5.30002H11.9996C12.2118 5.30002 12.4153 5.38431 12.5653 5.53434C12.7153 5.68437 12.7996 5.88785 12.7996 6.10002C12.7996 6.3122 12.7153 6.51568 12.5653 6.66571C12.4153 6.81574 12.2118 6.90002 11.9996 6.90002H3.99961C3.78744 6.90002 3.58395 6.81574 3.43392 6.66571C3.28389 6.51568 3.19961 6.3122 3.19961 6.10002ZM1.59961 9.30002C1.59961 8.87568 1.76818 8.46871 2.06824 8.16865C2.3683 7.8686 2.77526 7.70002 3.19961 7.70002H12.7996C13.224 7.70002 13.6309 7.8686 13.931 8.16865C14.231 8.46871 14.3996 8.87568 14.3996 9.30002V12.5C14.3996 12.9244 14.231 13.3313 13.931 13.6314C13.6309 13.9315 13.224 14.1 12.7996 14.1H3.19961C2.77526 14.1 2.3683 13.9315 2.06824 13.6314C1.76818 13.3313 1.59961 12.9244 1.59961 12.5V9.30002Z" fill="black" fill-opacity="0.5"/>
</svg>
