<svg width="16" height="17" viewBox="0 0 16 17" fill="none" xmlns="http://www.w3.org/2000/svg">
<path d="M1.59961 4.50002C1.59961 4.07568 1.76818 3.66871 2.06824 3.36865C2.3683 3.0686 2.77526 2.90002 3.19961 2.90002H8.79961C9.22396 2.90002 9.63092 3.0686 9.93098 3.36865C10.231 3.66871 10.3996 4.07568 10.3996 4.50002V7.70002C10.3996 8.12437 10.231 8.53134 9.93098 8.83139C9.63092 9.13145 9.22396 9.30002 8.79961 9.30002H7.19961L4.79961 11.7V9.30002H3.19961C2.77526 9.30002 2.3683 9.13145 2.06824 8.83139C1.76818 8.53134 1.59961 8.12437 1.59961 7.70002V4.50002Z" fill="url(#paint0_linear_324_244)"/>
<path d="M11.9996 6.09998V7.69998C11.9996 8.54867 11.6625 9.3626 11.0624 9.96272C10.4622 10.5628 9.64831 10.9 8.79962 10.9H7.86202L6.44922 12.3136C6.67322 12.4328 6.92842 12.5 7.19962 12.5H8.79962L11.1996 14.9V12.5H12.7996C13.224 12.5 13.6309 12.3314 13.931 12.0313C14.231 11.7313 14.3996 11.3243 14.3996 10.9V7.69998C14.3996 7.27563 14.231 6.86866 13.931 6.5686C13.6309 6.26855 13.224 6.09998 12.7996 6.09998H11.9996Z" fill="url(#paint1_linear_324_244)"/>
<defs>
<linearGradient id="paint0_linear_324_244" x1="1.59961" y1="7.30002" x2="10.3996" y2="7.30002" gradientUnits="userSpaceOnUse">
<stop stop-color="#6FDBB8"/>
<stop offset="1" stop-color="#6EBFF9"/>
</linearGradient>
<linearGradient id="paint1_linear_324_244" x1="6.44922" y1="10.5" x2="14.3996" y2="10.5" gradientUnits="userSpaceOnUse">
<stop stop-color="#6FDBB8"/>
<stop offset="1" stop-color="#6EBFF9"/>
</linearGradient>
</defs>
</svg>
