<svg width="18" height="21" viewBox="0 0 18 21" fill="none" xmlns="http://www.w3.org/2000/svg">
<path fill-rule="evenodd" clip-rule="evenodd" d="M8.18347 0.226435C8.43267 0.0779286 8.71301 0 8.99805 0C9.28308 0 9.56342 0.0779286 9.81262 0.226435L17.1347 4.59213C17.6675 4.90973 17.998 5.5122 17.998 6.16705V14.833C17.998 15.4878 17.6675 16.0903 17.1347 16.4079L9.81262 20.7736C9.56342 20.9221 9.28308 21 8.99805 21C8.71301 21 8.43267 20.9221 8.18347 20.7736L0.861437 16.4079C0.599698 16.2519 0.38161 16.0236 0.229794 15.7467C0.0779773 15.4697 -0.00203794 15.1543 -0.00195306 14.833V6.16705C-0.00195306 5.5122 0.328555 4.90973 0.861437 4.59213L8.18347 0.226435ZM9.07228 1.65838C9.04958 1.64481 9.02403 1.63769 8.99805 1.63769C8.97206 1.63769 8.94651 1.64481 8.92381 1.65838L1.60178 6.02408C1.57819 6.03817 1.55852 6.05874 1.54476 6.08366C1.531 6.10859 1.52366 6.13699 1.52347 6.16596V14.834C1.52347 14.893 1.55398 14.9475 1.60178 14.9759L8.92381 19.3416C8.94651 19.3552 8.97206 19.3623 8.99805 19.3623C9.02403 19.3623 9.04958 19.3552 9.07228 19.3416L16.3943 14.9759C16.4179 14.9618 16.4376 14.9413 16.4513 14.9163C16.4651 14.8914 16.4724 14.863 16.4726 14.834V6.16705C16.4726 6.13789 16.4654 6.10927 16.4516 6.08413C16.4378 6.059 16.4181 6.03826 16.3943 6.02408L9.07228 1.65838Z" fill="black" fill-opacity="0.5"/>
<path fill-rule="evenodd" clip-rule="evenodd" d="M3.9082 10.3106C3.9082 8.96056 4.44451 7.6658 5.39915 6.71116C6.35379 5.75652 7.64855 5.22021 8.99861 5.22021C10.3487 5.22021 11.6434 5.75652 12.5981 6.71116C13.5527 7.6658 14.089 8.96056 14.089 10.3106C14.089 11.6607 13.5527 12.9555 12.5981 13.9101C11.6434 14.8647 10.3487 15.401 8.99861 15.401C7.64855 15.401 6.35379 14.8647 5.39915 13.9101C4.44451 12.9555 3.9082 11.6607 3.9082 10.3106ZM8.99861 6.82771C8.07489 6.82771 7.189 7.19466 6.53582 7.84783C5.88265 8.50101 5.5157 9.3869 5.5157 10.3106C5.5157 11.2344 5.88265 12.1202 6.53582 12.7734C7.189 13.4266 8.07489 13.7935 8.99861 13.7935C9.92234 13.7935 10.8082 13.4266 11.4614 12.7734C12.1146 12.1202 12.4815 11.2344 12.4815 10.3106C12.4815 9.3869 12.1146 8.50101 11.4614 7.84783C10.8082 7.19466 9.92234 6.82771 8.99861 6.82771Z" fill="black" fill-opacity="0.5"/>
</svg>
